<svg xmlns="http://www.w3.org/2000/svg" width="1400" height="900" viewBox="0 0 1400 900"><defs>
    <linearGradient id="sky" x2=".2" y2="1"><stop stop-color="#091c30"/><stop offset=".55" stop-color="#25223d"/><stop offset="1" stop-color="#ae6968"/></linearGradient>
    <linearGradient id="foil"><stop stop-color="#b79bff"/><stop offset=".45" stop-color="#9aafff"/><stop offset="1" stop-color="#6be1d1"/></linearGradient>
    <linearGradient id="warm" x2=".5" y2="1"><stop stop-color="#e9b072"/><stop offset="1" stop-color="#c88ad2"/></linearGradient>
    <radialGradient id="halo"><stop stop-color="#9180d8" stop-opacity=".7"/><stop offset="1" stop-color="#526fba" stop-opacity="0"/></radialGradient>
    <linearGradient id="planet" x2=".3" y2="1"><stop stop-color="#c8a7c2"/><stop offset=".42" stop-color="#696a92"/><stop offset="1" stop-color="#152b43"/></linearGradient>
    </defs><rect width="1400" height="900" fill="#18202d"/><circle cx="78" cy="289" r="1" fill="#c5d6ef" opacity="0.68"/><circle cx="157" cy="367" r="1.7" fill="#c5d6ef" opacity="0.68"/><circle cx="636" cy="425" r="1.2" fill="#c5d6ef" opacity="0.27"/><circle cx="1050" cy="54" r="1.2" fill="#c5d6ef" opacity="0.50"/><circle cx="1204" cy="397" r="0.9" fill="#c5d6ef" opacity="0.34"/><circle cx="142" cy="405" r="0.9" fill="#c5d6ef" opacity="0.46"/><circle cx="187" cy="247" r="1.2" fill="#c5d6ef" opacity="0.26"/><circle cx="997" cy="75" r="1.2" fill="#c5d6ef" opacity="0.44"/><circle cx="890" cy="394" r="1.2" fill="#c5d6ef" opacity="0.65"/><circle cx="431" cy="370" r="0.7" fill="#c5d6ef" opacity="0.72"/><circle cx="541" cy="167" r="1.7" fill="#c5d6ef" opacity="0.68"/><circle cx="779" cy="192" r="1.2" fill="#c5d6ef" opacity="0.60"/><circle cx="906" cy="307" r="1" fill="#c5d6ef" opacity="0.31"/><circle cx="1025" cy="347" r="1.7" fill="#c5d6ef" opacity="0.79"/><circle cx="939" cy="220" r="0.7" fill="#c5d6ef" opacity="0.82"/><circle cx="43" cy="475" r="0.9" fill="#c5d6ef" opacity="0.26"/><circle cx="792" cy="473" r="1.2" fill="#c5d6ef" opacity="0.73"/><circle cx="471" cy="280" r="0.7" fill="#c5d6ef" opacity="0.83"/><circle cx="125" cy="398" r="0.7" fill="#c5d6ef" opacity="0.41"/><circle cx="507" cy="231" r="0.7" fill="#c5d6ef" opacity="0.53"/><circle cx="396" cy="173" r="1.2" fill="#c5d6ef" opacity="0.51"/><circle cx="471" cy="272" r="1.7" fill="#c5d6ef" opacity="0.55"/><circle cx="871" cy="370" r="1.7" fill="#c5d6ef" opacity="0.66"/><circle cx="715" cy="24" r="1" fill="#c5d6ef" opacity="0.58"/><circle cx="202" cy="170" r="1" fill="#c5d6ef" opacity="0.70"/><circle cx="538" cy="133" r="1" fill="#c5d6ef" opacity="0.71"/><circle cx="964" cy="153" r="1.7" fill="#c5d6ef" opacity="0.40"/><circle cx="904" cy="240" r="1" fill="#c5d6ef" opacity="0.77"/><circle cx="96" cy="459" r="0.7" fill="#c5d6ef" opacity="0.32"/><circle cx="166" cy="491" r="1.2" fill="#c5d6ef" opacity="0.22"/><circle cx="584" cy="385" r="0.7" fill="#c5d6ef" opacity="0.47"/><circle cx="1317" cy="217" r="1.2" fill="#c5d6ef" opacity="0.84"/><circle cx="530" cy="472" r="1.7" fill="#c5d6ef" opacity="0.63"/><circle cx="1227" cy="144" r="0.9" fill="#c5d6ef" opacity="0.52"/><circle cx="1096" cy="288" r="1" fill="#c5d6ef" opacity="0.46"/><circle cx="451" cy="107" r="1.7" fill="#c5d6ef" opacity="0.44"/><circle cx="349" cy="389" r="1" fill="#c5d6ef" opacity="0.23"/><circle cx="1155" cy="27" r="0.7" fill="#c5d6ef" opacity="0.27"/><circle cx="914" cy="435" r="1" fill="#c5d6ef" opacity="0.54"/><circle cx="758" cy="85" r="1" fill="#c5d6ef" opacity="0.29"/><circle cx="696" cy="132" r="0.7" fill="#c5d6ef" opacity="0.73"/><circle cx="174" cy="23" r="1" fill="#c5d6ef" opacity="0.58"/><circle cx="1180" cy="80" r="0.9" fill="#c5d6ef" opacity="0.39"/><circle cx="1232" cy="165" r="1.7" fill="#c5d6ef" opacity="0.66"/><circle cx="1086" cy="133" r="0.9" fill="#c5d6ef" opacity="0.52"/><circle cx="329" cy="291" r="0.7" fill="#c5d6ef" opacity="0.73"/><circle cx="518" cy="355" r="1.7" fill="#c5d6ef" opacity="0.58"/><circle cx="273" cy="207" r="1.7" fill="#c5d6ef" opacity="0.49"/><circle cx="1022" cy="208" r="1.2" fill="#c5d6ef" opacity="0.36"/><circle cx="514" cy="385" r="0.9" fill="#c5d6ef" opacity="0.82"/><circle cx="358" cy="171" r="0.9" fill="#c5d6ef" opacity="0.55"/><circle cx="1053" cy="218" r="1.7" fill="#c5d6ef" opacity="0.66"/><circle cx="169" cy="257" r="0.7" fill="#c5d6ef" opacity="0.44"/><circle cx="837" cy="483" r="1.2" fill="#c5d6ef" opacity="0.37"/><circle cx="509" cy="68" r="0.9" fill="#c5d6ef" opacity="0.39"/><circle cx="650" cy="92" r="0.9" fill="#c5d6ef" opacity="0.78"/><circle cx="960" cy="404" r="1.2" fill="#c5d6ef" opacity="0.57"/><circle cx="787" cy="411" r="1" fill="#c5d6ef" opacity="0.75"/><circle cx="38" cy="77" r="1.2" fill="#c5d6ef" opacity="0.68"/><circle cx="327" cy="317" r="1.2" fill="#c5d6ef" opacity="0.83"/><circle cx="1128" cy="178" r="1.7" fill="#c5d6ef" opacity="0.77"/><circle cx="1046" cy="279" r="0.9" fill="#c5d6ef" opacity="0.54"/><circle cx="775" cy="70" r="0.9" fill="#c5d6ef" opacity="0.28"/><circle cx="77" cy="481" r="1.2" fill="#c5d6ef" opacity="0.53"/><circle cx="829" cy="442" r="0.9" fill="#c5d6ef" opacity="0.72"/><circle cx="851" cy="107" r="1" fill="#c5d6ef" opacity="0.71"/><circle cx="690" cy="425" r="0.9" fill="#c5d6ef" opacity="0.26"/><circle cx="992" cy="162" r="0.7" fill="#c5d6ef" opacity="0.50"/><circle cx="45" cy="196" r="1.2" fill="#c5d6ef" opacity="0.82"/><circle cx="662" cy="82" r="1.7" fill="#c5d6ef" opacity="0.79"/><circle cx="1269" cy="398" r="1.2" fill="#c5d6ef" opacity="0.24"/><circle cx="236" cy="189" r="1" fill="#c5d6ef" opacity="0.84"/><circle cx="189" cy="430" r="0.7" fill="#c5d6ef" opacity="0.25"/><circle cx="1237" cy="162" r="1.2" fill="#c5d6ef" opacity="0.42"/><circle cx="1174" cy="455" r="0.9" fill="#c5d6ef" opacity="0.46"/><circle cx="761" cy="298" r="0.9" fill="#c5d6ef" opacity="0.25"/><circle cx="925" cy="248" r="0.7" fill="#c5d6ef" opacity="0.56"/><circle cx="99" cy="260" r="1.2" fill="#c5d6ef" opacity="0.63"/><circle cx="84" cy="250" r="1" fill="#c5d6ef" opacity="0.82"/><circle cx="1031" cy="109" r="1" fill="#c5d6ef" opacity="0.46"/><circle cx="1364" cy="347" r="1" fill="#c5d6ef" opacity="0.75"/><circle cx="823" cy="129" r="1.2" fill="#c5d6ef" opacity="0.54"/><circle cx="896" cy="441" r="1.7" fill="#c5d6ef" opacity="0.22"/><circle cx="561" cy="125" r="0.9" fill="#c5d6ef" opacity="0.73"/><circle cx="977" cy="423" r="1.2" fill="#c5d6ef" opacity="0.46"/><circle cx="163" cy="282" r="1.7" fill="#c5d6ef" opacity="0.36"/><circle cx="730" cy="437" r="1" fill="#c5d6ef" opacity="0.62"/><circle cx="94" cy="213" r="0.7" fill="#c5d6ef" opacity="0.37"/><circle cx="1242" cy="174" r="0.7" fill="#c5d6ef" opacity="0.54"/><circle cx="771" cy="307" r="1.2" fill="#c5d6ef" opacity="0.29"/><circle cx="748" cy="318" r="0.7" fill="#c5d6ef" opacity="0.67"/><circle cx="556" cy="244" r="0.9" fill="#c5d6ef" opacity="0.46"/><circle cx="1003" cy="108" r="0.9" fill="#c5d6ef" opacity="0.21"/><circle cx="1247" cy="266" r="1.7" fill="#c5d6ef" opacity="0.23"/><circle cx="1171" cy="130" r="1.7" fill="#c5d6ef" opacity="0.60"/><circle cx="288" cy="155" r="1.7" fill="#c5d6ef" opacity="0.76"/><circle cx="799" cy="43" r="0.7" fill="#c5d6ef" opacity="0.65"/><circle cx="808" cy="373" r="1.7" fill="#c5d6ef" opacity="0.33"/><circle cx="1272" cy="116" r="0.9" fill="#c5d6ef" opacity="0.62"/><circle cx="1168" cy="444" r="0.9" fill="#c5d6ef" opacity="0.67"/><ellipse cx="995" cy="380" rx="650" ry="600" fill="url(#halo)"/><circle cx="1090" cy="195" r="150" fill="url(#warm)" opacity=".65"/><path d="M0 640L1400 390v510H0z" fill="#1f3142"/><path d="M90 500l115 -27 40 33v190l-155 27z" fill="#755a66" stroke="#b9a0b0" stroke-width="1"/><path d="M205 473v190l40 33M90 530l115 -27" fill="none" stroke="#152c3d" stroke-width="4"/><path d="M102 535v144" stroke="#172b3a" stroke-width="2" opacity=".6"/><path d="M122 531v144" stroke="#172b3a" stroke-width="2" opacity=".6"/><path d="M142 527v144" stroke="#172b3a" stroke-width="2" opacity=".6"/><path d="M162 523v144" stroke="#172b3a" stroke-width="2" opacity=".6"/><path d="M182 519v144" stroke="#172b3a" stroke-width="2" opacity=".6"/><path d="M267 390l115 -27 40 33v190l-155 27z" fill="#3b6773" stroke="#b9a0b0" stroke-width="1"/><path d="M382 363v190l40 33M267 420l115 -27" fill="none" stroke="#152c3d" stroke-width="4"/><path d="M279 425v144" stroke="#172b3a" stroke-width="2" opacity=".6"/><path d="M299 421v144" stroke="#172b3a" stroke-width="2" opacity=".6"/><path d="M319 417v144" stroke="#172b3a" stroke-width="2" opacity=".6"/><path d="M339 413v144" stroke="#172b3a" stroke-width="2" opacity=".6"/><path d="M359 409v144" stroke="#172b3a" stroke-width="2" opacity=".6"/><path d="M444 280l115 -27 40 33v190l-155 27z" fill="#655677" stroke="#b9a0b0" stroke-width="1"/><path d="M559 253v190l40 33M444 310l115 -27" fill="none" stroke="#152c3d" stroke-width="4"/><path d="M456 315v144" stroke="#172b3a" stroke-width="2" opacity=".6"/><path d="M476 311v144" stroke="#172b3a" stroke-width="2" opacity=".6"/><path d="M496 307v144" stroke="#172b3a" stroke-width="2" opacity=".6"/><path d="M516 303v144" stroke="#172b3a" stroke-width="2" opacity=".6"/><path d="M536 299v144" stroke="#172b3a" stroke-width="2" opacity=".6"/><path d="M621 500l115 -27 40 33v190l-155 27z" fill="#755a66" stroke="#b9a0b0" stroke-width="1"/><path d="M736 473v190l40 33M621 530l115 -27" fill="none" stroke="#152c3d" stroke-width="4"/><path d="M633 535v144" stroke="#172b3a" stroke-width="2" opacity=".6"/><path d="M653 531v144" stroke="#172b3a" stroke-width="2" opacity=".6"/><path d="M673 527v144" stroke="#172b3a" stroke-width="2" opacity=".6"/><path d="M693 523v144" stroke="#172b3a" stroke-width="2" opacity=".6"/><path d="M713 519v144" stroke="#172b3a" stroke-width="2" opacity=".6"/><path d="M798 390l115 -27 40 33v190l-155 27z" fill="#3b6773" stroke="#b9a0b0" stroke-width="1"/><path d="M913 363v190l40 33M798 420l115 -27" fill="none" stroke="#152c3d" stroke-width="4"/><path d="M810 425v144" stroke="#172b3a" stroke-width="2" opacity=".6"/><path d="M830 421v144" stroke="#172b3a" stroke-width="2" opacity=".6"/><path d="M850 417v144" stroke="#172b3a" stroke-width="2" opacity=".6"/><path d="M870 413v144" stroke="#172b3a" stroke-width="2" opacity=".6"/><path d="M890 409v144" stroke="#172b3a" stroke-width="2" opacity=".6"/><path d="M975 280l115 -27 40 33v190l-155 27z" fill="#655677" stroke="#b9a0b0" stroke-width="1"/><path d="M1090 253v190l40 33M975 310l115 -27" fill="none" stroke="#152c3d" stroke-width="4"/><path d="M987 315v144" stroke="#172b3a" stroke-width="2" opacity=".6"/><path d="M1007 311v144" stroke="#172b3a" stroke-width="2" opacity=".6"/><path d="M1027 307v144" stroke="#172b3a" stroke-width="2" opacity=".6"/><path d="M1047 303v144" stroke="#172b3a" stroke-width="2" opacity=".6"/><path d="M1067 299v144" stroke="#172b3a" stroke-width="2" opacity=".6"/><path d="M1152 500l115 -27 40 33v190l-155 27z" fill="#755a66" stroke="#b9a0b0" stroke-width="1"/><path d="M1267 473v190l40 33M1152 530l115 -27" fill="none" stroke="#152c3d" stroke-width="4"/><path d="M1164 535v144" stroke="#172b3a" stroke-width="2" opacity=".6"/><path d="M1184 531v144" stroke="#172b3a" stroke-width="2" opacity=".6"/><path d="M1204 527v144" stroke="#172b3a" stroke-width="2" opacity=".6"/><path d="M1224 523v144" stroke="#172b3a" stroke-width="2" opacity=".6"/><path d="M1244 519v144" stroke="#172b3a" stroke-width="2" opacity=".6"/><path d="M345 60v450M340 60h575l65 36M380 88h512M837 76v350" fill="none" stroke="#9d98b8" stroke-width="8"/><path d="M815 422h50l40 54H775z" fill="#b99d92"/><path d="M0 800l1400 -207" stroke="#667892" stroke-width="3"/><path d="M0 817l1400 -207" stroke="#b797d6" stroke-width="1"/><g stroke="#729daa" stroke-width="2" opacity=".6"><path d="M80 120v160m-12 -142h250M920 680h330v112"/></g></svg>